<?xml version="1.0" standalone="no"?><!DOCTYPE svg PUBLIC "-//W3C//DTD SVG 1.1//EN" "http://www.w3.org/Graphics/SVG/1.1/DTD/svg11.dtd"><svg t="1670145340696" class="icon" viewBox="0 0 1071 1024" version="1.1" xmlns="http://www.w3.org/2000/svg" p-id="2420" xmlns:xlink="http://www.w3.org/1999/xlink" width="209.1796875" height="200"><path d="M328.067835 754.975692h-115.771622a18.234031 18.234031 0 1 1 0-36.468061h115.771622a18.234031 18.234031 0 1 1 0 36.468061zM343.407575 834.858112H171.776145a18.234031 18.234031 0 1 1 0-36.468061h171.63143a18.234031 18.234031 0 1 1 0 36.468061z" p-id="2421"></path><path d="M1070.887507 933.698135a18.957603 18.957603 0 0 0-1.302431-4.052007L942.091577 660.911249V18.234031A18.378745 18.378745 0 0 0 923.857547 0H147.608819a18.378745 18.378745 0 0 0-18.234031 18.234031v642.677218L1.736574 928.777841a33.139627 33.139627 0 0 0-1.30243 4.052006 17.799887 17.799887 0 0 0 0 2.894291v70.041831a18.378745 18.378745 0 0 0 18.23403 18.234031h1034.419446A18.378745 18.378745 0 0 0 1070.887507 1005.765969v-69.173544-2.89429z m-905.334087-897.230074h739.925382V646.87394H165.842849zM159.185981 683.342001h752.515545l112.009045 235.016394H47.032222z m875.667609 303.900509h-998.530243V955.115885h998.530243z" p-id="2422"></path><path d="M827.043527 891.296778H394.491803a18.234031 18.234031 0 0 1-13.458451-30.390051 90.157151 90.157151 0 0 0 0-118.810628 18.234031 18.234031 0 0 1 13.458451-30.534765h432.551724a18.378745 18.378745 0 0 1 18.234031 18.378745v143.122668a18.234031 18.234031 0 0 1-18.234031 18.234031z m-398.977953-36.468061h380.743923V748.17411H428.065574a128.217072 128.217072 0 0 1 0 106.654607z" p-id="2423"></path><path d="M749.47654 819.807801H490.871679a18.52346 18.52346 0 0 1-18.234031-18.378745 18.234031 18.234031 0 0 1 18.234031-18.234031h258.604861a18.089316 18.089316 0 0 1 18.234031 18.234031 18.378745 18.378745 0 0 1-18.234031 18.378745z" p-id="2424"></path><path d="M717.49463 683.342001H284.942906a18.234031 18.234031 0 0 1-14.471453-28.942905 174.670435 174.670435 0 0 0 0-175.538723 18.668174 18.668174 0 0 1-3.18372-10.274731c0-18.234031 13.024308-18.234031 36.75749-18.234031h413.449407a18.234031 18.234031 0 0 1 18.23403 18.234031V665.686829a18.234031 18.234031 0 0 1-18.23403 17.655172z m-402.306388-36.468061h384.072357v-159.185981H315.188242a215.335218 215.335218 0 0 1 0 159.185981z" p-id="2425"></path><path d="M859.025438 64.687394H212.296213a18.234031 18.234031 0 0 0-18.234031 18.234031v517.499152a18.089316 18.089316 0 0 0 18.234031 18.089316h73.949123a176.551724 176.551724 0 0 0 6.656869-36.468061h-62.371962V101.30017H840.791408v480.741662h-105.062748v36.468061h123.296778a18.234031 18.234031 0 0 0 18.378745-18.089316V82.921425a18.378745 18.378745 0 0 0-18.378745-18.234031z" p-id="2426"></path><path d="M843.975127 723.57264L777.117015 556.861504a18.52346 18.52346 0 0 0-17.076314-11.432448h-24.312041v36.612776h12.011306l52.241945 130.243075H421.55342l11.287733-28.942906h-39.362351L377.560204 723.57264a18.234031 18.234031 0 0 0 16.931599 25.180328h432.551724a17.944601 17.944601 0 0 0 14.471453-8.104014 18.378745 18.378745 0 0 0 2.460147-17.076314z" p-id="2427"></path><path d="M649.189373 618.799322H373.218768a18.234031 18.234031 0 1 1 0-36.468061h275.970605a18.234031 18.234031 0 0 1 0 36.468061zM649.189373 551.651781H373.218768a18.234031 18.234031 0 1 1 0-36.323347h275.970605a18.234031 18.234031 0 1 1 0 36.323347z" p-id="2428"></path><path d="M717.49463 487.39853H284.942906a17.944601 17.944601 0 0 1-14.471453-8.104013 18.378745 18.378745 0 0 1-1.881289-17.076315l66.858112-165.987563a18.378745 18.378745 0 0 1 16.9316-11.432448H651.215376a18.089316 18.089316 0 0 1 16.9316 11.432448l66.858112 165.987563a18.234031 18.234031 0 0 1-16.9316 25.180328z m-405.200679-36.612775h378.139062l-52.09723-129.519503H364.101752z" p-id="2429"></path></svg>